<svg width="63" height="188" fill="none" xmlns="http://www.w3.org/2000/svg">
  <path fill-rule="evenodd" clip-rule="evenodd" d="M1 171.694c0 .27.10895.528.30212.716l14.68168 14.306c.1867.182.4371.284.6978.284H47c.5523 0 1-.448 1-1V2c0-.55229-.4477-1-1-1H2c-.55228 0-1 .44772-1 1v169.694Z" fill="#A06328" stroke="#03363D" stroke-width="2">
      <animate attributeName="d" dur="1000ms" to="M0.652344 43.026C0.652344 43.1862 0.717055 43.3397 0.831801 43.4516L9.51954 51.9208C9.63053 52.029 9.7794 52.0896 9.9344 52.0896H27.8744C28.2026 52.0896 28.4687 51.8235 28.4687 51.4952V1.46688C28.4687 1.13864 28.2026 0.872559 27.8744 0.872559H1.24666C0.91843 0.872559 0.652344 1.13864 0.652344 1.46688V43.026Z" />
  </path>
  <path fill-rule="evenodd" clip-rule="evenodd" d="M17 186c0 .552.4477 1 1 1h43c.5523 0 1-.448 1-1V16c0-.5523-.4477-1-1-1H18c-.5523 0-1 .4477-1 1v170Z" fill="#F9AE65" stroke="#03363D" stroke-width="2"/>
  <path d="M3.46946 1H47.3727c.2685 0 .5257.10799.7138.29966L61.3317 14.7997c.6208.6326.1726 1.7003-.7138 1.7003h-43.213c-.2597 0-.5092-.101-.6957-.2818L2.77367 2.71824C2.12827 2.09301 2.57088 1 3.46946 1Z" fill="#FEDEB9" stroke="#03363D" stroke-width="2"/>
</svg>